<svg width="113" height="118" viewBox="0 0 113 118" fill="none" xmlns="http://www.w3.org/2000/svg">
<path d="M106.762 30.645C108.398 38.9457 104.384 49.3572 96.464 59.5156C88.5512 69.6654 76.7791 79.5054 63.0216 86.6138C49.2641 93.7222 36.148 96.7417 26.0671 95.8891C15.9777 95.0357 8.98137 90.3133 7.34566 82.0125C5.70996 73.7117 9.72405 63.3003 17.6436 53.1418C25.5564 42.992 37.3285 33.1521 51.086 26.0437C64.8435 18.9353 77.9596 15.9158 88.0405 16.7684C98.13 17.6217 105.126 22.3442 106.762 30.645Z" stroke="#DC1C1C" stroke-width="0.5"/>
<path d="M105.655 35.9873C107.29 44.288 103.276 54.6995 95.3566 64.8579C87.4438 75.0077 75.6717 84.8477 61.9142 91.9561C48.1567 99.0644 35.0406 102.084 24.9597 101.231C14.8702 100.378 7.87394 95.6555 6.23824 87.3548C4.60254 79.054 8.61663 68.6426 16.5362 58.4841C24.449 48.3343 36.2211 38.4944 49.9786 31.386C63.7361 24.2776 76.8522 21.2581 86.9331 22.1107C97.0226 22.964 104.019 27.6865 105.655 35.9873Z" stroke="#DC1C1C" stroke-width="0.5"/>
</svg>
