<svg width="34" height="25" viewBox="0 0 34 25" fill="none" xmlns="http://www.w3.org/2000/svg">
<path d="M14.5 5C13.8434 5 13.1932 5.12933 12.5866 5.3806C11.98 5.63188 11.4288 6.00017 10.9645 6.46447C10.5002 6.92876 10.1319 7.47995 9.8806 8.08658C9.62933 8.69321 9.5 9.34339 9.5 10C9.5 10.6566 9.62933 11.3068 9.8806 11.9134C10.1319 12.52 10.5002 13.0712 10.9645 13.5355C11.4288 13.9998 11.98 14.3681 12.5866 14.6194C13.1932 14.8707 13.8434 15 14.5 15C15.8261 15 17.0979 14.4732 18.0355 13.5355C18.9732 12.5979 19.5 11.3261 19.5 10C19.5 8.67392 18.9732 7.40215 18.0355 6.46447C17.0979 5.52678 15.8261 5 14.5 5ZM12 10C12 9.33696 12.2634 8.70107 12.7322 8.23223C13.2011 7.76339 13.837 7.5 14.5 7.5C15.163 7.5 15.7989 7.76339 16.2678 8.23223C16.7366 8.70107 17 9.33696 17 10C17 10.663 16.7366 11.2989 16.2678 11.7678C15.7989 12.2366 15.163 12.5 14.5 12.5C13.837 12.5 13.2011 12.2366 12.7322 11.7678C12.2634 11.2989 12 10.663 12 10Z" fill="#2D6EBB"/>
<path d="M0.333496 3.75C0.333496 2.75544 0.728584 1.80161 1.43185 1.09835C2.13511 0.395088 3.08893 0 4.0835 0H24.9168C25.4093 0 25.8969 0.0969963 26.3519 0.285451C26.8069 0.473907 27.2203 0.75013 27.5685 1.09835C27.9167 1.44657 28.1929 1.85997 28.3814 2.31494C28.5698 2.76991 28.6668 3.25754 28.6668 3.75V16.25C28.6668 16.7425 28.5698 17.2301 28.3814 17.6851C28.1929 18.14 27.9167 18.5534 27.5685 18.9016C27.2203 19.2499 26.8069 19.5261 26.3519 19.7145C25.8969 19.903 25.4093 20 24.9168 20H4.0835C3.08893 20 2.13511 19.6049 1.43185 18.9016C0.728584 18.1984 0.333496 17.2446 0.333496 16.25V3.75ZM4.0835 2.5C3.75198 2.5 3.43403 2.6317 3.19961 2.86612C2.96519 3.10054 2.8335 3.41848 2.8335 3.75V5H4.0835C4.41502 5 4.73296 4.8683 4.96738 4.63388C5.2018 4.39946 5.3335 4.08152 5.3335 3.75V2.5H4.0835ZM2.8335 12.5H4.0835C5.07806 12.5 6.03189 12.8951 6.73515 13.5983C7.43841 14.3016 7.8335 15.2554 7.8335 16.25V17.5H21.1668V16.25C21.1668 15.2554 21.5619 14.3016 22.2652 13.5983C22.9684 12.8951 23.9223 12.5 24.9168 12.5H26.1668V7.5H24.9168C23.9223 7.5 22.9684 7.10491 22.2652 6.40165C21.5619 5.69839 21.1668 4.74456 21.1668 3.75V2.5H7.8335V3.75C7.8335 4.24246 7.7365 4.73009 7.54805 5.18506C7.35959 5.64003 7.08337 6.05343 6.73515 6.40165C6.38693 6.74987 5.97353 7.02609 5.51856 7.21455C5.06359 7.403 4.57595 7.5 4.0835 7.5H2.8335V12.5ZM26.1668 5V3.75C26.1668 3.41848 26.0351 3.10054 25.8007 2.86612C25.5663 2.6317 25.2484 2.5 24.9168 2.5H23.6668V3.75C23.6668 4.44 24.2268 5 24.9168 5H26.1668ZM26.1668 15H24.9168C24.5853 15 24.2674 15.1317 24.0329 15.3661C23.7985 15.6005 23.6668 15.9185 23.6668 16.25V17.5H24.9168C25.2484 17.5 25.5663 17.3683 25.8007 17.1339C26.0351 16.8995 26.1668 16.5815 26.1668 16.25V15ZM2.8335 16.25C2.8335 16.94 3.3935 17.5 4.0835 17.5H5.3335V16.25C5.3335 15.9185 5.2018 15.6005 4.96738 15.3661C4.73296 15.1317 4.41502 15 4.0835 15H2.8335V16.25Z" fill="#2D6EBB"/>
<path d="M4.3348 22.5C4.77364 23.2604 5.40505 23.8918 6.16547 24.3307C6.92588 24.7696 7.78849 25.0004 8.66647 25H25.7498C26.7894 25 27.8189 24.7952 28.7794 24.3974C29.7399 23.9995 30.6126 23.4164 31.3477 22.6812C32.0829 21.9461 32.666 21.0734 33.0638 20.1129C33.4617 19.1524 33.6665 18.1229 33.6665 17.0833V8.33331C33.6665 6.48331 32.6615 4.86665 31.1665 4.00165V17.0833C31.1665 18.5199 30.5958 19.8977 29.58 20.9135C28.5641 21.9293 27.1864 22.5 25.7498 22.5H4.3348Z" fill="#2D6EBB"/>
</svg>
