<svg width="34" height="34" viewBox="0 0 34 34" fill="none" xmlns="http://www.w3.org/2000/svg">
<circle cx="17" cy="17" r="17" fill="#2964AE"/>
<path d="M23.3953 10.9286H9.71436V21.4524H23.3953V10.9286ZM22.3429 20.4H10.7667V11.981H22.3429V20.4Z" fill="white"/>
<path d="M24.4476 13.5595V22.5047H12.3452V23.5571H25.5V13.5595H24.4476Z" fill="white"/>
<path d="M16.5544 18.7708C17.86 18.7708 18.9222 17.6153 18.9222 16.1949C18.9222 14.7746 17.86 13.619 16.5544 13.619C15.2488 13.619 14.1865 14.7746 14.1865 16.1949C14.1865 17.6153 15.2488 18.7708 16.5544 18.7708ZM16.5544 14.6714C17.2797 14.6714 17.8699 15.3549 17.8699 16.1949C17.8699 17.035 17.2797 17.7185 16.5544 17.7185C15.829 17.7185 15.2389 17.035 15.2389 16.1949C15.2389 15.3549 15.829 14.6714 16.5544 14.6714Z" fill="white"/>
<path d="M11.8193 13.2964H12.8717V19.0845H11.8193V13.2964Z" fill="white"/>
<path d="M20.2378 13.2964H21.2902V19.0845H20.2378V13.2964Z" fill="white"/>
</svg>
