<svg width="34" height="34" viewBox="0 0 34 34" fill="none" xmlns="http://www.w3.org/2000/svg">
<circle cx="17" cy="17" r="17" fill="#2964AE"/>
<path d="M10.8462 11C9.82708 11 9 11.896 9 13V21C9 22.104 9.82708 23 10.8462 23H23.1538C24.1729 23 25 22.104 25 21V13C25 11.896 24.1729 11 23.1538 11H10.8462ZM10.8462 12.3333H23.1538C23.4929 12.3333 23.7692 12.6327 23.7692 13V13.3333L17 17.292L10.2308 13.3333V13C10.2308 12.6327 10.5071 12.3333 10.8462 12.3333ZM10.2308 13.5207L14.2498 16.9167L10.3077 21.292L15.1157 17.5833L17 18.896L18.8849 17.5833L23.6923 21.292L19.7502 16.9167L23.7692 13.5207V21C23.7658 21.1027 23.7394 21.2029 23.6923 21.292C23.5908 21.5087 23.3932 21.6667 23.1538 21.6667H10.8462C10.6068 21.6667 10.4092 21.5087 10.3077 21.2913C10.2607 21.2024 10.2343 21.1024 10.2308 21V13.5207Z" fill="white"/>
</svg>
