<svg width="28" height="28" viewBox="0 0 28 28" fill="none" xmlns="http://www.w3.org/2000/svg">
<path d="M1.08006 26.9206C-1.89101 23.9464 1.48139 15.7519 8.61662 8.61664C15.7519 1.48141 23.9464 -1.89254 26.9206 1.08008C29.8917 4.05426 26.5193 12.2488 19.384 19.3841C12.2488 26.5193 4.05424 29.8932 1.08006 26.9206ZM3.23603 24.7646C4.50379 26.034 11.1724 23.2869 17.2312 17.2281C23.29 11.1693 26.0355 4.5007 24.7677 3.23294C23.5 1.96363 16.8314 4.7107 10.7726 10.7695C4.71379 16.8283 1.96827 23.4969 3.23603 24.7646ZM8.61818 19.3825C1.48139 12.2488 -1.89257 4.05426 1.08006 1.08008C4.05424 -1.89099 12.2488 1.48141 19.384 8.61664C26.5193 15.7519 29.8932 23.9464 26.9206 26.9206C23.9464 29.8917 15.7519 26.5193 8.61662 19.3841L8.61818 19.3825ZM10.7726 17.2281C16.8314 23.2869 23.5 26.0324 24.7677 24.7646C26.037 23.4969 23.29 16.8283 17.2312 10.7695C11.1724 4.7107 4.50379 1.96518 3.23603 3.23294C1.96671 4.5007 4.71379 11.1693 10.7726 17.2281ZM14.0003 17.1114C13.1752 17.1114 12.3839 16.7836 11.8005 16.2002C11.217 15.6168 10.8893 14.8255 10.8893 14.0003C10.8893 13.1752 11.217 12.3839 11.8005 11.8005C12.3839 11.2171 13.1752 10.8893 14.0003 10.8893C14.8254 10.8893 15.6167 11.2171 16.2002 11.8005C16.7836 12.3839 17.1114 13.1752 17.1114 14.0003C17.1114 14.8255 16.7836 15.6168 16.2002 16.2002C15.6167 16.7836 14.8254 17.1114 14.0003 17.1114Z" fill="#2D6EBB"/>
</svg>
