<svg width="163" height="47" viewBox="0 0 163 47" fill="none" xmlns="http://www.w3.org/2000/svg">
<path d="M46.3199 25.8671H34.6118H34.5891L34.5293 25.9297L34.5606 25.9809L34.3898 26.0407L34.2959 26.1688H34.1592L34.0966 26.1888V26.2258L34.0254 26.3083V26.3681L34.0596 26.3937L33.9742 26.5218L33.8945 26.6243V26.7581L33.8205 26.9175L33.6383 27.1822L33.5301 27.2278H33.4675L33.4931 27.2562V27.3331L33.459 27.3843L33.3508 27.7174L33.2682 27.928V28.0447L33.4106 28.1671L33.5159 28.2867H33.5842L33.6497 28.4717L33.6212 28.5315L33.5785 28.5173L33.5188 28.5571L33.4874 28.6795V28.8646L33.5615 28.9386V29.0581L33.4931 29.1151L33.5102 29.2261L33.5643 29.3599H33.5358L33.5671 29.4225L33.5871 29.5193L33.6468 29.5705L33.5956 29.6531L33.644 29.71L33.6952 29.8609L33.6782 29.9377L33.8575 30.1085L33.9884 30.1284L34.0966 30.2195V30.2708L34.1336 30.2936L34.1165 30.4131L34.0881 30.4729L34.1165 30.4957L34.0112 30.6437V30.6978L34.0311 30.7348V30.7661L33.9913 30.8031L34.0141 30.9824L34.071 31.0906L34.0425 31.1219V31.25L34.071 31.2813V31.4066L34.0169 31.4578L34.0368 31.5916L33.9998 31.8421H33.9799L34.0084 31.8848V32.1097H33.9315V32.1382L33.9571 32.1752H34.0568L34.0852 32.1979L34.108 32.3915L34.0568 32.4655L34.0027 32.494L34.034 32.5395V32.5879H33.9685L33.8974 32.6619L33.9173 32.6875L33.94 32.6676H34.0027L33.9571 32.7331V32.8356H33.8945L33.7835 32.9751V33.0377L33.6839 33.1743H33.6013V33.2683L33.2654 33.4504H33.217L33.1914 33.5216L32.8697 33.6924H32.7473V33.718L32.5993 33.7863L32.3972 33.9201L32.3488 33.886V33.9486L32.2264 34.0995L32.1638 34.1279L32.1296 34.0454L32.1068 34.1763L32.0499 34.1934L32.03 34.2674L31.8279 34.3898V34.4411L31.7766 34.4866L31.7282 34.5008V34.572H31.5973L31.3126 34.7513V34.8652L31.2244 34.9307H31.1048L31.0536 34.9961L30.9597 34.9364H30.9056V35.0132L30.954 35.0702V35.1499L30.917 35.2011V35.2751L30.8629 35.3548L31.008 35.5512V35.6195L30.9454 35.6708L30.9938 35.6936L31.0479 35.7818V35.9014L31.1077 36.0124L31.0821 36.3255L31.1105 36.4365H31.1475V36.3483L31.2045 36.2287V36.334H31.2272V36.4707L31.1874 36.5219V36.6586L31.2102 36.6785L31.1504 36.8379V36.9233L31.1048 36.9802V37.0827H31.0764L31.0963 37.1709L31.1732 37.1254L31.1902 37.1823L31.1276 37.2763L31.0963 37.4072L30.9141 37.6008L30.5868 37.7488L30.1455 37.8371L29.9747 37.9993L29.8466 38.0306L29.8068 38.0904L29.7442 38.1416L29.7071 38.2669H29.6559L29.6075 38.2982L29.6303 38.3267L29.6787 38.4178V38.5089L29.7242 38.4491L29.7954 38.4718L29.8182 38.3864H29.8523V38.4291L29.8324 38.5715L29.7812 38.654V38.7565L29.7214 38.8362H29.7498L29.6901 39.0184L29.673 39.175L29.599 39.3258L29.5506 39.5194L29.4766 39.6076L29.4538 39.6959L29.32 39.8524H29.2745L29.246 39.8951L29.1435 39.9435L29.0951 40.0005L28.9727 40.0802L28.9129 40.1997L28.8133 40.3136V40.362L28.7564 40.4702H28.6596L28.5827 40.6182L28.3835 40.9911L28.2212 41.142L28.1956 41.2843L28.1017 41.3241L28.0134 41.4295H27.9622L27.9394 41.4693L27.4128 41.9874H27.3502V42.013L27.2648 42.1098L26.9203 42.3318L26.8463 42.4115L26.7239 42.4485V42.4799L26.5303 42.5311L26.4222 42.5994H26.3083L26.2514 42.5567H26.0977L25.9724 42.5966L25.9183 42.6877L25.9923 42.7503V42.7788H25.8158L25.7134 42.7275H25.6308L25.5596 42.7987L25.591 42.8613L25.5596 42.8926L25.3177 42.8414L25.2494 42.7873L25.0159 42.7304L24.8651 42.7588V42.7958L24.7854 42.8243L24.6687 42.7617H24.3982L24.3185 42.7987L24.2958 42.8841L24.2417 42.8585L24.179 42.8755L24.1221 42.9211L24.0936 42.9609H23.9741L23.8944 42.9951L23.7464 42.941L23.6268 42.9837L23.604 43.0179L23.4816 42.9923L23.3735 43.1147L23.2824 43.1317L23.2511 43.2057L23.197 43.1858L23.1486 43.2086L22.8981 43.0919L22.8468 43.1203V43.0008L22.7529 42.9496L22.6789 42.9866L22.6333 42.9666L22.6732 42.9325L22.6476 42.8271L22.5309 42.8072L22.4455 42.8812V42.9723L22.3828 42.9239V42.8215L22.417 42.7361L22.3942 42.6108L22.4625 42.4969L22.3743 42.3375L22.2861 42.2578L22.2035 42.1297V41.9988L22.2576 41.9504L22.306 42.0016H22.3515L22.4113 41.9362L22.4398 41.7824L22.3857 41.6116V41.5348L22.2434 41.2957V41.1847L22.1039 41.0025L22.0384 40.7178L21.9188 40.4218V40.2794L21.8107 39.972L21.6484 39.8524L21.6199 39.6902L21.4492 39.5678L21.4207 39.4966L21.3011 39.3771L21.1787 39.1351L21.0876 39.0098V38.8163L21.0079 38.728V38.6256L21.062 38.5857L21.0165 38.4946L20.9482 38.4576L20.9111 38.1957L20.8514 38.1189L20.9225 38.0733L20.877 37.9281L20.8941 37.7146L20.7432 37.319V36.9318L20.672 36.6728L20.7347 36.6443V36.4365L20.4699 36.0522V35.9099L20.2166 35.5512L20.1796 35.3263L19.9291 34.757L19.7697 34.4724L19.485 34.1678L19.4565 33.7379V33.6867L19.4793 33.5273V33.2825L19.5021 33.1231V32.9409L19.6416 32.7729L19.67 32.5822L19.7924 32.42V32.0157L19.838 31.9787V31.8108L20.1226 31.566V31.4436L20.3447 31.2756H20.4045L20.6037 30.9027V30.4615L20.5411 30.3846V30.3021L20.3504 29.989V29.858L20.2735 29.7356V29.5534L20.1824 29.5079L20.3418 29.3029L20.3646 29.1037L20.2137 28.8902V28.4973L19.9291 28.1842V28.1131L19.875 28.0476L20.0202 27.9679L19.9262 27.9366H19.781L19.7554 27.8768L19.7298 27.817L19.7867 27.7117L19.7526 27.5665L19.69 27.501L19.633 27.4356L19.6416 27.3274L19.5619 27.2391V27.1481L19.411 27.0513L19.3569 26.9972L19.2573 26.9004L19.2345 26.8776L19.1463 26.8435L19.1406 26.7581L18.9584 26.6698L18.91 26.5588L18.6823 26.3766L18.5456 26.2315L18.5826 26.2058L18.4545 26.0977L18.4004 25.9809L18.3236 25.9041V25.7504L18.2325 25.6337V25.554L18.1756 25.5084L18.0702 25.2864V25.2351L18.1926 25.275L18.2894 25.1953L18.3122 24.9106L18.3264 24.7711L18.3834 24.8281L18.6054 24.774L18.4488 24.737L18.3492 24.5776L18.4574 24.5605V24.4409V24.4125L18.3321 24.347L18.4574 24.1079L18.6168 23.9285L18.5798 23.8403L18.5997 23.8204L18.6794 23.7435L18.6054 23.6667L18.6737 23.4902L18.6566 23.2966L18.5655 23.1685V23.0262L18.5997 22.9607L18.5228 22.8411L18.3748 22.9038L18.3293 22.8525H18.241L18.1813 22.5423L18.1015 22.5849L18.0332 22.5536L17.9962 22.5764L17.9108 22.4882L17.8596 22.6305L17.7315 22.6561L17.6489 22.6077L17.4155 22.6931L17.3643 22.6618L17.2646 22.7216L16.7779 22.7501L16.5957 22.6988L16.4648 22.5821L16.4078 22.4056L16.3395 22.3715V22.2035L16.2143 21.9587L16.0093 21.7594L15.6392 21.563L15.4798 21.6285L15.2834 21.5886H15.2635L14.9162 21.7054L14.7369 21.6826H14.6828L14.4124 21.8505H14.3697L14.085 21.8847L13.8459 22.0014L13.584 22.2206L13.2794 22.2491L12.8439 22.4569L12.6475 22.3686L12.3628 22.3316L12.3372 22.2861L12.266 22.1523L12.1692 22.175L12.1465 22.3003L11.9273 22.2035L11.6739 22.2861H11.0078L10.8171 22.3117V22.3629L10.467 22.4882L10.43 22.5394H10.3189L10.1424 22.6903L10.0969 22.6732L9.59875 22.4882L9.21445 22.2035H9.10913L8.796 21.8904H8.77323L8.58535 21.7651H8.5085L8.3804 21.5801L8.29785 21.5431L8.33485 21.4719H8.32062L8.25515 21.3979H8.06443L7.79685 21.2584L7.68298 21.23L7.71145 21.1673L7.63744 21.0876L7.57481 21.025L7.61751 20.9396V20.9168L7.51503 20.9538L7.40117 20.8314V20.7176L7.34993 20.5582H7.25314L7.21614 20.4785L7.28446 20.3504L7.21329 20.3105V20.2337L7.26738 20.1397L7.19337 20.0799L7.05673 20.0088L7.01688 19.8551H6.91155L6.86601 19.8095V19.7298L6.90586 19.69L6.83185 19.6416L6.7863 19.707L6.70944 19.6757H6.59558L6.48172 19.5192L6.52726 19.3341L6.44756 19.2459L6.328 19.28L6.30238 19.2516V19.1662L6.08888 19.189L6.20844 19.0609H6.15151L6.17998 19.0153L6.13443 18.9641H6.05188L6.02057 18.9214H6.26253L6.30523 18.8901L6.17144 18.7876L6.04903 18.8132L5.92093 18.8587H5.864L5.83554 18.7876H5.73306L5.64197 18.6965L5.73306 18.6253H5.66474H5.49679L5.45409 18.5485V18.4517L5.40855 18.3976L5.49394 18.4204L5.54803 18.4374L5.6562 18.3691L5.4854 18.3094L5.37154 18.3691L5.34592 18.3321L5.39431 18.278V18.1272L5.33738 18.0532L5.42563 17.9649L5.5281 18.0959H5.66474L5.7416 18.0247L5.62773 18.056L5.49679 17.9905L5.47402 17.9137L5.45978 17.8738L5.5281 17.8226L5.40855 17.7372H5.4484V17.6347L5.35446 17.6205L5.24344 17.4269L5.07265 17.2874L5.38862 17.0028L5.51956 16.7665L5.53949 16.6014L5.56796 16.3964L5.64766 16.0833L5.77006 15.9125L5.80422 15.551L5.70459 15.0301L5.56511 14.8023L5.62204 14.7596H5.69321L5.73021 14.5888L5.69321 14.4778L5.75868 14.4124L5.6135 14.196L5.55372 14.2444L5.50533 14.233L5.46263 14.1106L5.35161 14.233V14.0394L5.40855 13.9199V13.9V13.7349L5.46263 13.6267V13.5014L5.5338 13.4246H5.59642L5.75583 13.1399L5.84408 13.1058L5.78145 13.0602V13.0118L5.98356 12.7442V12.6674L6.10881 12.3827L6.18282 12.3429L6.41909 12.1237L6.43617 11.9785L6.74645 11.5287L6.66674 11.3864L6.80338 11.3067L6.83754 11.2071L7.18767 11.0249H7.27876V10.8171L7.47518 10.5324L7.59474 10.3616L8.0872 10.2705L8.43733 9.96311H8.59674L8.74192 9.80655L8.77608 9.66706L9.09205 9.30839L9.12621 9.16322L9.06928 9.09205L9.02658 9.04935L9.09205 8.86148L9.0095 8.69353V8.58536L9.14044 8.31777L9.34255 8.13559V8.01319L9.26285 7.83955L9.49057 7.67444L9.56174 7.56627L9.68414 7.52642L9.88341 7.39263H9.96311L10.1026 7.24461L10.2876 7.18198L10.3986 7.10512H10.4527L10.6805 6.89447L10.7488 6.76353L10.7715 6.55573L10.8797 6.4134L10.8996 6.12874L10.9964 6.02057H11.0761L11.116 5.98356L11.2156 5.9494L11.2441 5.98641L11.227 6.01487V6.07181L11.2498 6.15151L11.3039 6.19421L11.4433 6.34223L11.5515 6.36501L11.7052 6.34223L11.8106 6.2853H11.8931L12.0554 6.33085L12.2176 6.29669L12.3059 6.1999H12.3429L12.3685 6.29669L12.4311 6.35931L12.7158 6.38208H12.7869H12.9207L13.0744 6.33369L13.1712 6.22837L13.1883 6.16859L13.2509 6.11166L13.3705 6.04903H13.5128L13.5413 6.00918L13.5954 5.97217H13.6637L13.6979 6.00349H13.7519L13.8146 5.92093V5.84408L13.9341 5.77007H14.0053L14.1448 5.75014L14.3896 5.56226L14.5006 5.57934H14.6942L14.8023 5.54234L14.919 5.60496H14.9959L15.124 5.47971L15.2208 5.51672H15.3261L15.3773 5.41424L15.44 5.40001L15.5311 5.42847H15.5823L15.6876 5.44555L15.8214 5.42278L15.884 5.43986H16.0207L16.0862 5.54234H16.2L16.3025 5.46263H16.3822L16.4477 5.48825L16.5103 5.40855L16.6128 5.38862V5.3203L16.7295 5.29184L16.8007 5.34592V5.42563L16.9743 5.44555L17.0597 5.36015V5.30892L17.1963 5.35731L17.3073 5.45409L17.5208 5.39147L17.5949 5.40855L17.7372 5.38008L17.7628 5.41139L17.8937 5.29753L18.0759 5.20644L18.2097 5.17797L18.261 5.25198V5.18651L18.372 5.16374L18.4346 5.22067V5.30892L18.4858 5.32599L18.5599 5.49964L18.6111 5.5281L18.6709 5.46548L18.8502 5.30038L18.8958 5.33453V5.43417L18.7961 5.58219V5.67328L18.6737 5.75868L18.6509 5.88962L18.7733 6.05473L18.9214 6.11166V6.27676L18.9584 6.30238L18.9783 6.37354L18.9242 6.43048L18.9669 6.49026L18.9299 6.54719L18.7847 6.68952L18.5342 6.86601L18.4858 7.01403L18.5655 7.15921L18.725 7.27023L18.799 7.25315L18.8217 7.33L18.8901 7.36132L18.9271 7.33V7.293L18.9584 7.27023L19.0352 7.31292V7.38409L19.0495 7.43817L19.2003 7.52927H19.2601L19.374 7.55204L19.4708 7.64313L19.7184 7.69722L20.0714 7.63174L20.2109 7.68583H20.4955L20.6663 7.79685L20.988 7.84239L21.1161 8.01034V8.16691L21.2727 8.4658L21.4406 8.5512H21.6342L21.6883 8.51988L21.8505 8.53981L22.2263 8.69637L22.4597 8.81593L22.6106 8.93833L22.8041 9.09774L23.0233 9.18599L23.1287 9.14614L23.2994 9.00096L23.3165 8.95257L23.4475 8.82162L23.4902 8.70776L23.4275 8.50565L23.3365 8.36332L23.3535 8.10428L23.4162 8.05589L23.4475 7.91925L23.5699 7.79969L23.7834 7.69722L24.031 7.67444L24.1876 7.59474H24.2246L24.3328 7.64882L24.384 7.60328L24.4267 7.62605L24.6032 7.6716H24.7114L24.9249 7.78831V7.85093L24.885 7.86516L24.9249 7.9221L25.1042 7.97049H25.2351L25.3035 8.03311L25.6422 8.07297L25.7361 8.05873L25.8272 8.07297L25.8984 8.15552L25.9439 8.295H25.9952H26.2457L26.4392 8.35763L26.8321 8.38894L26.9943 8.4231L27.1367 8.52273L27.1964 8.48572H27.2534L27.3986 8.57682H27.5694H27.6889L27.8711 8.69068H28.039L28.059 8.64513L28.1814 8.53981L28.3123 8.49711L28.3749 8.46295L28.5116 8.38894L28.5714 8.34624H28.7137H28.8133L28.7336 8.3804H28.6368V8.40317L28.671 8.43733L28.782 8.39179H28.8788H28.9727V8.35763L28.8987 8.34339L28.9272 8.31208L29.098 8.35763L29.2005 8.39179H29.283L29.3257 8.43449L29.2773 8.45726L29.3001 8.5455L29.4026 8.60244L29.4709 8.70491V8.63944L29.3769 8.53981L29.3997 8.45441L29.5847 8.58251L29.8352 8.51419L30.1569 8.56828L30.2936 8.51419L30.359 8.42595L30.4131 8.45157L30.5127 8.59674L30.564 8.78462L30.7063 9.00096L30.8173 9.26285L30.7746 9.38525L30.8401 9.55605L30.8202 9.58736L30.7433 9.87202V9.98019L30.6835 10.1311L30.7291 10.1766L30.6921 10.3559L30.6238 10.4214L30.6038 10.4812V10.4527L30.47 10.3787L30.2281 10.1225L30.1996 10.0286L30.0658 9.96881L30.0174 9.86917V9.76954L29.821 9.60444V9.54181L29.7755 9.48773L29.7413 9.35963H29.6929L29.673 9.32832L29.6502 9.36248V9.4308V9.49911L29.7555 9.63575V9.74962L29.9434 9.97165L29.9662 10.0514L30.2509 10.299L30.2936 10.3787L30.2736 10.4584V10.5324L30.4444 10.7175V10.7744L30.4957 10.8399L30.5156 11.0334L30.5697 11.1188V11.2242L30.86 11.6711L30.8828 11.8134L30.9653 11.8675L31.1646 12.1521L31.2102 12.2859L31.2671 12.3543V12.3201L31.2984 12.3457L31.381 12.4738H31.4293L31.4863 12.5336H31.3383L31.3012 12.5023V12.545L31.3354 12.6133V12.7386L31.3126 12.8097L31.3895 13.0744L31.5461 13.1741H31.64L31.7026 13.1456L31.7652 13.2794L31.8706 13.3107L31.9019 13.3733L32.0186 13.4929L32.1068 13.5271V13.5698V13.6153L32.1325 13.6552V13.6808L32.1495 13.7035V13.7235L32.1695 13.7519L32.2036 13.8914L32.3004 14.0081V14.0565H32.2776L32.2634 14.0252L32.2235 13.9768L32.2065 13.9939V14.085L32.3289 14.4465L32.3545 14.6458L32.326 14.8308L32.3943 15.0471L32.4854 15.2208L32.568 15.2379L32.79 15.3859V15.4827H32.8925L33.0007 15.5396V15.6108H33.0206L33.1373 15.736L33.348 16.2883L33.4163 16.6498H33.4533L33.4817 16.7836V16.8291L33.5501 16.8519L33.5928 16.9572L33.6184 17.1138L33.7066 17.1366V16.9942H33.6839V16.8917L33.7209 16.8747L33.812 17.0056L33.7778 17.0426L33.8632 17.1707L33.9201 17.2305L33.9714 17.1963H34.0454L34.0767 17.2163L34.1422 17.1935L34.2332 17.296L34.2816 17.3557L34.4211 17.3899L34.4524 17.4411L34.6232 17.6319L34.6972 17.76L34.7997 17.8027L34.8737 17.8909H34.9136V17.8624L34.9477 17.908L35.0303 18.1186L35.0929 18.1357L35.1641 18.2268L35.147 18.2581L35.1926 18.3577H35.2438L35.3007 18.3862L35.3406 18.3492L35.3577 18.3777H35.3833V18.4147L35.5 18.5285H35.5313V18.5769L35.5484 18.7335L35.4971 18.7534L35.4032 18.8587H35.332L35.2808 18.9356H35.1726L35.2296 19.0039H35.2637L35.3406 18.9698H35.4715L35.4886 19.0039L35.5199 19.0666H35.5512L35.8672 19.4508L35.9042 19.5277L35.9554 19.5419L36.0807 19.6558L36.2031 19.6843L36.3483 19.6672L36.3938 19.6103L36.5248 19.5305H36.6073L36.7753 19.3939H36.8265L36.855 19.4224H36.9916L37.04 19.4053L37.1396 19.4508L37.2877 19.4338L37.5922 19.2459L37.6919 19.226L37.7915 19.2687L37.8655 19.2459H38.0022L38.1416 19.1747H38.301L38.3494 19.2032H38.4007L38.6455 19.1576L38.7138 19.0722L38.8618 19.0523L38.9045 19.0893V19.0466L39.0582 19.0295L39.1493 18.9413H39.1664L39.2063 18.8701L39.2689 18.8104H39.3116V18.7876L39.3714 18.8303L39.4995 18.8758H39.5592H39.582L39.5279 18.9527L39.4966 19.0324V19.1149L39.4682 19.1662L39.4909 19.2089H39.5678V19.2373L39.5137 19.2829L39.471 19.3882L39.5137 19.448L39.5308 19.5334L39.4938 19.6131H39.5621V19.5875H39.5934L39.6247 19.6473L39.5906 19.6643V19.6444H39.5251H39.4824L39.4084 19.7697L39.4482 19.8351L39.4283 19.9547L39.397 20.0088V20.1397L39.2233 20.3817L39.1066 20.6322L39.0326 20.7233H38.9928H46.3484C46.3874 20.7234 46.4248 20.7072 46.4513 20.6785C46.4778 20.6498 46.4911 20.6113 46.4879 20.5724C46.4879 20.5069 46.4708 20.4443 46.4623 20.3817C46.4139 19.986 46.3541 19.5932 46.2858 19.2032C46.2658 19.0836 46.2431 18.9612 46.2203 18.8417C46.132 18.3862 46.0353 17.9336 45.9214 17.4867C45.9214 17.4525 45.9015 17.4212 45.8929 17.3871C45.7848 16.9715 45.6624 16.5587 45.5314 16.1516C45.4944 16.0349 45.4574 15.9182 45.4176 15.8043C45.2809 15.4058 45.1329 15.013 44.9849 14.623C44.9678 14.586 44.9564 14.5461 44.9393 14.5091C44.7685 14.0878 44.5835 13.6751 44.3899 13.268C44.3387 13.1598 44.2846 13.0545 44.2334 12.9492C44.0645 12.6076 43.888 12.2717 43.7039 11.9415L43.5843 11.7223C43.3623 11.3428 43.1289 10.9632 42.8841 10.5837L42.7019 10.299C42.4988 9.99348 42.2882 9.69458 42.0699 9.40233L41.8451 9.19453C41.5746 8.84155 41.2985 8.49426 41.0082 8.15837L40.8288 7.95626C40.584 7.6716 40.3335 7.40402 40.0745 7.13643L39.8524 6.88878C39.5393 6.57281 39.2177 6.26253 38.8874 5.96363L38.7593 5.85546C38.4747 5.59073 38.1559 5.33738 37.8456 5.08973L37.5609 4.86485C37.2136 4.59726 36.8607 4.33538 36.4991 4.08772L36.4735 4.0678C36.1006 3.81445 35.7192 3.57249 35.3349 3.33907L35.0132 3.15973C34.6745 2.96331 34.3329 2.77259 33.9856 2.59041L33.8034 2.49362C33.4049 2.29152 32.995 2.10364 32.5822 1.9243L32.2662 1.79336C31.9218 1.64818 31.5717 1.5087 31.2187 1.3863L30.934 1.28382C30.507 1.13579 30.0801 0.999158 29.6331 0.876754L29.3485 0.797049C28.9841 0.700264 28.6169 0.61202 28.244 0.532315L27.9053 0.458303C27.4526 0.367212 26.9972 0.287507 26.5332 0.224882L26.3055 0.196416C25.9041 0.145177 25.5113 0.105324 25.107 0.0740117L24.7313 0.0483923C24.2531 0.0199262 23.7748 0 23.2909 0H23.2055C22.7501 0 22.2917 0.0199262 21.8306 0.0483923L21.3495 0.0882447C21.025 0.113864 20.7005 0.148023 20.376 0.187876C20.171 0.213495 19.9604 0.236268 19.7554 0.267581H19.7099C9.26169 1.9042 1.22297 10.3671 0.125251 20.8855C0.125251 20.9311 0.125251 20.9766 0.125251 21.0222C0.0825515 21.3296 0.0597787 21.6342 0.042699 21.9473C0.042699 22.0384 0.042699 22.1295 0.042699 22.232C0 22.5764 0 22.9351 0 23.2966C0 23.3251 0 23.3535 0 23.382C0 23.7151 0 24.0424 0.0227728 24.3726L0.0398524 24.6573C0.0569321 24.9419 0.0768583 25.2266 0.105324 25.5283L0.122404 25.7304C0.15941 26.0777 0.204955 26.4222 0.256194 26.7638C0.256194 26.8492 0.281814 26.9317 0.296047 27.0171C0.338746 27.3018 0.387138 27.558 0.441223 27.8255C0.458303 27.9166 0.475383 28.0077 0.495309 28.1102C0.563627 28.4461 0.640486 28.782 0.725884 29.1122C0.725884 29.1492 0.74581 29.1891 0.757196 29.2261C0.834055 29.5107 0.919453 29.8153 1.0077 30.1057L1.0931 30.3903C1.18134 30.675 1.27243 30.9312 1.37776 31.2016C1.39768 31.2557 1.41476 31.3126 1.43469 31.3667C1.5514 31.6827 1.67665 31.9958 1.80475 32.3061L1.90722 32.5424C2.01255 32.7843 2.12072 33.0263 2.23458 33.2683L2.34845 33.5074C2.49647 33.8091 2.63311 34.1052 2.8039 34.3984L2.87507 34.5236C3.01455 34.7798 3.15973 35.0303 3.3106 35.2808L3.45862 35.5228C3.60949 35.7676 3.76321 36.0095 3.92262 36.2486C3.95109 36.2885 3.9767 36.3312 4.00517 36.3739C4.1902 36.6586 4.38377 36.9176 4.57449 37.1852L4.73105 37.393C4.89046 37.6008 5.05272 37.8086 5.21782 38.0107C5.27191 38.079 5.32315 38.1445 5.38008 38.21C5.59073 38.4633 5.80707 38.7138 6.02911 38.9586L6.14012 39.081C6.33085 39.2888 6.52726 39.4909 6.72368 39.693L6.92294 39.8923C7.13359 40.1001 7.34708 40.3022 7.56342 40.5015L7.65167 40.584C7.89648 40.8089 8.14983 41.0252 8.40317 41.2359L8.61097 41.4038C8.81308 41.5689 9.02089 41.7341 9.23153 41.8935L9.42795 42.0415C9.69268 42.2379 9.96311 42.4315 10.2364 42.6108L10.3929 42.7104C10.6235 42.8642 10.8569 43.015 11.0932 43.1602L11.3352 43.3082C11.5971 43.4648 11.8618 43.6185 12.1294 43.7665L12.2119 43.8121C12.4966 43.9715 12.804 44.1224 13.1058 44.2675L13.3506 44.3871C13.5925 44.5009 13.8373 44.6091 14.0821 44.7173L14.3042 44.8141C14.6145 44.9422 14.9276 45.0674 15.2436 45.1813L15.4371 45.2525C15.699 45.3435 15.9609 45.4346 16.2256 45.5172L16.5103 45.6054C16.8206 45.6994 17.1337 45.7876 17.4468 45.8702L17.4981 45.8844C17.8311 45.9698 18.167 46.0467 18.5029 46.1178L18.7876 46.1719C19.0722 46.226 19.3284 46.2744 19.6046 46.3199L19.8408 46.3569C20.1824 46.4082 20.5269 46.4509 20.8713 46.4879L21.1019 46.5078C21.3865 46.5363 21.6712 46.5562 21.9558 46.5733L22.2405 46.5904C22.5963 46.6046 22.955 46.616 23.3137 46.616C23.6724 46.616 24.0595 46.616 24.4295 46.5904C24.5719 46.5904 24.7142 46.5704 24.848 46.5619C25.0786 46.5448 25.3063 46.5334 25.534 46.5135C25.6821 46.5135 25.8187 46.4765 25.9724 46.4594C26.1916 46.4366 26.4079 46.4139 26.6243 46.3826L27.094 46.3057C27.2961 46.2715 27.4953 46.2431 27.6946 46.2061C27.8939 46.1691 28.0191 46.1349 28.1814 46.1007C28.3436 46.0666 28.5628 46.0239 28.7507 45.9783C28.9386 45.9328 29.0781 45.8929 29.2403 45.8502C29.4026 45.8075 29.6075 45.7563 29.7897 45.7051C29.9719 45.6538 30.1114 45.6054 30.2708 45.5542C30.4302 45.503 30.6294 45.446 30.8059 45.3862C30.9824 45.3265 31.1191 45.2724 31.2756 45.2154C31.4322 45.1585 31.6286 45.0902 31.8051 45.0219C31.9816 44.9536 32.1154 44.8909 32.2719 44.8255C32.4285 44.76 32.6107 44.6888 32.7786 44.6148C32.9466 44.5408 33.0861 44.4696 33.2369 44.3985C33.3878 44.3273 33.57 44.2448 33.7322 44.1651C33.8945 44.0853 34.0169 44.0085 34.1763 43.9288C34.3357 43.8491 34.5008 43.7608 34.6602 43.6726C34.8196 43.5843 34.9449 43.5046 35.0901 43.4192C35.2353 43.3338 35.4089 43.2371 35.5626 43.1346C35.7163 43.0321 35.8473 42.9552 35.9811 42.8642C36.1149 42.7731 36.2885 42.6677 36.4394 42.5653C36.5902 42.4628 36.7098 42.3717 36.8464 42.2806C36.9831 42.1895 37.1311 42.0728 37.2877 41.9646L37.6833 41.6543C37.8257 41.5433 37.968 41.4352 38.1075 41.3213L38.4861 40.9911C38.6227 40.8744 38.7707 40.7605 38.8931 40.641C39.0155 40.5214 39.1351 40.4132 39.2575 40.2994C39.3799 40.1855 39.5222 40.0546 39.6532 39.9265C39.7841 39.7984 39.8838 39.6873 40.0005 39.5706C40.1172 39.4539 40.2538 39.3116 40.3762 39.1806C40.4986 39.0497 40.6011 38.9301 40.7121 38.8077C40.8231 38.6853 40.9541 38.5402 41.0708 38.4035C41.1875 38.2669 41.2814 38.1445 41.3868 38.0135C41.4921 37.8826 41.6173 37.7289 41.7284 37.5951C41.8394 37.4613 41.9276 37.3104 42.0301 37.188C42.1326 37.0656 42.2436 36.9034 42.3489 36.7553C42.4542 36.6073 42.5368 36.4707 42.6336 36.3369C42.7304 36.2031 42.8357 36.0522 42.9182 35.89C43.0008 35.7277 43.0947 35.6053 43.1858 35.4573C43.2769 35.3093 43.3737 35.1527 43.4705 34.9961C43.5673 34.8396 43.6356 34.7115 43.7181 34.5464C43.8007 34.3813 43.8918 34.2361 43.9743 34.0795C44.0569 33.923 44.1309 33.7693 44.2077 33.6155C44.2846 33.4618 44.3672 33.2967 44.4412 33.1345C44.5152 32.9722 44.5807 32.8185 44.6518 32.6591C44.723 32.4997 44.797 32.3346 44.8653 32.1695C44.9336 32.0044 44.9906 31.8478 45.0532 31.6855C45.1158 31.5233 45.1841 31.3496 45.2468 31.1788C45.3094 31.0081 45.3549 30.8515 45.4119 30.6892C45.4688 30.527 45.5286 30.3419 45.5827 30.1683C45.6367 29.9947 45.6794 29.8353 45.725 29.6673C45.7705 29.4994 45.8275 29.3172 45.873 29.1378C45.9186 28.9585 45.9556 28.7962 45.9954 28.6226C46.0353 28.449 46.0808 28.2696 46.1178 28.0903C46.1548 27.9109 46.1833 27.7401 46.2146 27.5665C46.2459 27.3929 46.2858 27.205 46.3142 27.0228C46.3427 26.8406 46.3626 26.667 46.3882 26.4905C46.4139 26.314 46.4338 26.1717 46.4509 26.0123C46.4541 25.9363 46.3959 25.8717 46.3199 25.8671ZM18.9071 7.23891L18.8274 7.17629V7.13928H18.9214L18.9584 7.18483L18.9071 7.23891ZM7.54919 21.1702L7.48087 21.1275L7.46664 21.0819L7.48941 21.0449H7.5435L7.58335 21.0933V21.1616L7.54919 21.1702ZM17.054 24.8452L16.9971 24.8822H16.9572V24.7882L17.017 24.7256L17.0796 24.7654L17.054 24.8452ZM17.908 23.2397V23.1628H17.9735L18.0133 23.0461L18.1186 22.9379L18.1556 22.9721V23.1144L18.0816 23.3108L17.9848 23.2966L17.908 23.2397Z" fill="#0090FC"/>
<path d="M29.5196 38.6825L29.4712 38.691L29.437 38.6996L29.5196 38.6825Z" fill="#0090FC"/>
<path d="M55.7939 37.9766L54.6553 40.6808H53.4939L57.8919 30.6949L62.1789 40.6808H61.0032L59.8788 37.9766H55.7939ZM57.8549 33.1715L56.2238 36.9888H59.4376L57.8549 33.1715Z" fill="#0090FC"/>
<path d="M77.5812 32.1354V34.982H80.7552V35.9669H77.5812V40.6951H76.5194V31.1476H80.8434V32.1354H77.5812Z" fill="#0090FC"/>
<path d="M96.5998 40.6809H95.5381V31.1476H96.9158C98.7263 31.1476 100.406 31.6287 100.406 33.7778C100.406 35.2438 99.4834 36.2829 98.0174 36.4081L101.052 40.678H99.7482L96.8674 36.4935H96.5998V40.6809ZM96.5998 35.557H96.93C98.1313 35.557 99.344 35.3292 99.344 33.849C99.344 32.2805 98.2053 32.141 96.9158 32.141H96.5998V35.557Z" fill="#0090FC"/>
<path d="M116.663 40.6809H115.601V31.1476H116.663V40.6809Z" fill="#0090FC"/>
<path d="M139.273 33.2341C138.511 32.435 137.457 31.979 136.353 31.9702C134.229 31.9702 132.51 33.8176 132.51 35.9156C132.523 38.0622 134.244 39.8077 136.39 39.8524C137.48 39.8236 138.515 39.3689 139.273 38.5857V39.9008C138.445 40.5021 137.45 40.8296 136.427 40.8373C134.665 40.8373 133.038 39.8976 132.157 38.3722C131.276 36.8467 131.276 34.9673 132.157 33.4419C133.038 31.9164 134.665 30.9767 136.427 30.9767C137.453 30.9614 138.455 31.29 139.273 31.9104V33.2341ZM155.767 37.9765L154.628 40.6808H153.464L157.864 30.6949L162.149 40.6808H160.973L159.834 37.9765H155.767ZM157.827 33.1714L156.196 36.9887H159.41L157.827 33.1714ZM66.8358 19.4764H56.0785C56.0785 21.5544 57.1716 22.676 59.278 22.676C60.374 22.676 61.1597 22.3116 61.7204 21.358H66.6394C66.2773 22.9218 65.2936 24.2704 63.9152 25.0928C62.5195 25.9095 60.9262 26.327 59.3094 26.2997C54.5356 26.2997 50.9688 23.604 50.9688 18.6338C50.9688 13.8316 54.2538 10.948 58.9393 10.948C63.9379 10.948 66.8301 14.0366 66.8301 18.9498L66.8358 19.4764ZM62.0905 16.5273C61.8035 15.169 60.5861 14.2104 59.1983 14.2501C57.7096 14.2501 56.4741 15.0357 56.1639 16.5273H62.0905Z" fill="#0090FC"/>
<path d="M82.6232 12.8096V4.64844H88.1285V25.8215H82.6232V17.145H74.6755V25.8215H69.173V4.64844H74.6755V12.8096H82.6232Z" fill="#0090FC"/>
<path d="M105.979 19.4764H95.2249C95.2249 21.5544 96.3208 22.676 98.4245 22.676C99.5204 22.676 100.306 22.3116 100.87 21.358H105.783C105.419 22.9243 104.431 24.2737 103.047 25.0928C101.652 25.9095 100.058 26.327 98.4416 26.2997C93.6678 26.2997 90.101 23.604 90.101 18.6338C90.101 13.8316 93.386 10.948 98.0715 10.948C103.07 10.948 105.962 14.0366 105.962 18.9498L105.979 19.4764ZM101.234 16.5273C100.947 15.169 99.7297 14.2104 98.3419 14.2501C96.8532 14.2501 95.6177 15.0357 95.3075 16.5273H101.234ZM124.497 25.8215H119.373V24.2217H119.319C118.419 25.645 116.648 26.2997 114.963 26.2997C110.693 26.2997 107.69 22.7329 107.69 18.6139C107.69 14.4949 110.639 10.948 114.909 10.948C116.566 10.948 118.305 11.5657 119.373 12.8296V11.4148H124.497V25.8215ZM112.982 18.6338C112.982 20.4585 114.189 21.8619 116.267 21.8619C118.345 21.8619 119.558 20.4585 119.558 18.6338C119.558 16.8632 118.345 15.3716 116.267 15.3716C114.189 15.3716 112.982 16.8632 112.982 18.6338Z" fill="#0090FC"/>
<path d="M132.424 25.8215H127.315V2.51355H132.424V25.8215Z" fill="#0090FC"/>
<path d="M152.359 2.51355V13.2424H152.416C153.595 11.6682 155.026 10.9395 157.022 10.9395C160.671 10.9395 162.43 13.3534 162.43 17.0028V25.8272H157.307V18.4374C157.307 16.7523 157.053 15.0215 155.004 15.0215C152.954 15.0215 152.336 16.7636 152.336 18.4374V25.8215H147.213V2.51355H152.359Z" fill="#0090FC"/>
<path d="M145.286 11.4149H142.393V2.51355H137.281V11.4149H134.392V15.6279H137.281V25.8215H142.393V15.6279H145.286V11.4149Z" fill="#0090FC"/>
</svg>
