<svg width="140" height="39" viewBox="0 0 140 39" fill="none" xmlns="http://www.w3.org/2000/svg">
<path fill-rule="evenodd" clip-rule="evenodd" d="M110.648 2.5861C110.648 1.48166 109.666 0.500244 108.439 0.500244H105.367C104.14 0.500244 103.157 1.48166 103.157 2.5861L103.281 35.5002C103.279 35.7748 103.331 36.0471 103.435 36.3013C103.539 36.5555 103.693 36.7864 103.887 36.9806C104.081 37.1747 104.312 37.3283 104.566 37.4322C104.82 37.5362 105.093 37.5885 105.367 37.586H108.439C109.666 37.586 110.648 36.6046 110.648 35.5002V2.5861Z" fill="#005695"/>
<path fill-rule="evenodd" clip-rule="evenodd" d="M114.58 3.56891V5.0382C114.58 5.77355 115.072 6.26567 115.807 6.26567H137.421C137.904 6.25315 138.365 6.05545 138.707 5.71336C139.049 5.37127 139.247 4.91091 139.259 4.42729V1.84932C139.259 0.866495 138.399 -0.114917 137.421 0.0109415C137.421 0.0109415 116.544 2.09679 115.807 2.21982C115.07 2.21982 114.58 2.83356 114.58 3.57033V3.56891Z" fill="#005695"/>
<path fill-rule="evenodd" clip-rule="evenodd" d="M97.017 37.5861C91.6135 37.5861 88.2974 33.5345 88.2974 28.9909V15.8493H86.7008C85.9641 15.8493 85.2259 15.1126 85.2259 14.3758V12.1641C85.2325 11.7755 85.3901 11.4047 85.6655 11.1304C85.9408 10.8562 86.3122 10.6999 86.7008 10.6948H88.2974V2.58613C88.2949 2.31134 88.3472 2.03882 88.4513 1.78448C88.5553 1.53013 88.709 1.29905 88.9033 1.10474C89.0976 0.910432 89.3287 0.756778 89.583 0.652752C89.8373 0.548726 90.1099 0.496409 90.3847 0.498862H93.4547C94.5592 0.498862 95.419 1.48028 95.419 2.58613V10.6948H100.209C100.404 10.6872 100.598 10.7201 100.78 10.7913C100.961 10.8624 101.126 10.9704 101.264 11.1084C101.402 11.2464 101.51 11.4114 101.581 11.5931C101.652 11.7748 101.684 11.9692 101.677 12.1641V14.3716C101.671 14.7608 101.515 15.1326 101.239 15.4078C100.964 15.6831 100.592 15.84 100.203 15.8451H95.419V28.0067C95.419 30.3386 96.8939 32.0596 99.4719 32.0596H99.964C100.176 32.0527 100.386 32.0893 100.583 32.1671C100.78 32.2449 100.959 32.3623 101.108 32.5119C101.258 32.6616 101.375 32.8403 101.453 33.0371C101.531 33.234 101.567 33.4446 101.561 33.6562V35.9895C101.553 36.4107 101.383 36.8125 101.085 37.1104C100.787 37.4082 100.385 37.5788 99.964 37.5861H97.017Z" fill="#005695"/>
<path fill-rule="evenodd" clip-rule="evenodd" d="M60.1747 23.7048C60.1747 16.7062 56.0002 9.70483 46.5438 9.70483C37.8242 9.70483 33.0346 16.5804 33.0346 23.7048C33.0346 31.3185 38.1919 38.0739 46.6654 38.0739C52.4379 38.0739 58.0874 35.1268 59.1919 30.0925C59.3149 29.4787 58.8242 28.4959 57.963 28.4959H53.7884C53.4405 28.4923 53.0979 28.5812 52.7957 28.7537C52.4935 28.9262 52.2427 29.1759 52.0689 29.4773C50.84 31.1997 49.1218 32.061 46.6668 32.061C42.983 32.061 40.5267 29.2327 40.2806 26.0438H57.8385C59.4365 26.0438 60.1733 25.184 60.1733 23.7091L60.1747 23.7048ZM40.4022 20.7634C40.6483 17.6933 43.3493 15.36 46.5438 15.36C49.86 15.36 52.561 17.6933 52.9301 20.7634H40.4022Z" fill="#005695"/>
<path fill-rule="evenodd" clip-rule="evenodd" d="M140 23.7048C140 16.7062 135.825 9.70483 126.367 9.70483C117.648 9.70483 112.86 16.5804 112.86 23.7048C112.86 31.3185 118.018 38.0739 126.492 38.0739C132.263 38.0739 137.911 35.1268 139.017 30.0925C139.141 29.4787 138.648 28.4959 137.789 28.4959H133.615C133.267 28.4922 132.924 28.5811 132.622 28.7535C132.319 28.926 132.068 29.1758 131.894 29.4773C130.666 31.1997 128.947 32.061 126.367 32.061C122.807 32.061 120.35 29.2327 120.104 26.0438H137.666C139.263 26.0438 140 25.184 140 23.7091V23.7048ZM120.229 20.7634C120.473 17.6933 123.172 15.3614 126.367 15.3614C129.684 15.3614 132.386 17.6947 132.632 20.7648L120.229 20.7634Z" fill="#005695"/>
<path fill-rule="evenodd" clip-rule="evenodd" d="M82.4033 0.866543H25.6652C25.3588 0.866543 25.0555 0.926909 24.7725 1.04419C24.4895 1.16146 24.2323 1.33336 24.0158 1.55004C23.7992 1.76673 23.6275 2.02397 23.5104 2.30705C23.3933 2.59014 23.3331 2.89352 23.3333 3.19987L23.4549 25.5517C23.4549 25.5517 11.2933 3.44593 10.6824 2.34008C10.3069 1.6999 9.7693 1.16993 9.12385 0.803518C8.4784 0.437102 7.74782 0.247159 7.00564 0.252808H2.33899C2.03192 0.251877 1.7277 0.311599 1.44378 0.428548C1.15985 0.545498 0.901824 0.717372 0.684499 0.934303C0.467174 1.15123 0.294833 1.40895 0.177368 1.69266C0.0599033 1.97637 -0.00037211 2.28049 1.72834e-06 2.58755V35.2541C1.72834e-06 36.6046 0.989898 37.5875 2.33333 37.5875H5.28039C6.6309 37.5875 7.61372 36.6046 7.61372 35.2541L7.49493 12.413C7.49493 12.413 19.7753 34.6404 20.3905 35.5002C21.0042 36.7277 22.2288 37.5875 23.9513 37.5875H28.2488C29.5993 37.5875 30.5822 36.6046 30.5822 35.2541V6.39582H82.4033C82.8243 6.3882 83.226 6.21755 83.5238 5.91977C83.8215 5.62199 83.9922 5.22031 83.9998 4.79926V2.46452C83.9929 2.04335 83.8227 1.64132 83.5251 1.3432C83.2275 1.04509 82.8258 0.874186 82.4047 0.866543H82.4033Z" fill="#005695"/>
<path fill-rule="evenodd" clip-rule="evenodd" d="M73.1914 15.1125C75.6478 15.1125 77.4904 15.9723 78.2271 17.5675C78.4732 18.3057 79.0869 18.4287 79.9467 18.4287H83.3859C83.878 18.4287 84.6134 17.9366 84.6134 17.2012C84.6134 13.2713 79.8237 9.7063 73.1928 9.7063C66.3229 9.70489 61.7722 13.0239 61.7722 18.1897C61.7722 22.2426 64.9654 24.5774 68.7722 25.6846C70.6106 26.0537 73.6835 26.7891 75.157 27.2812C76.6306 27.6503 78.1041 28.141 78.1041 29.4915C78.1041 31.7018 75.8938 32.3198 73.3144 32.3198C70.9811 32.3198 68.6478 31.3299 68.034 29.6188C67.6664 28.6289 66.9282 28.5143 65.9468 28.5143H62.5048C61.891 28.5143 61.1543 29.1267 61.1543 29.8634V30.3556C61.1543 34.1624 66.313 38.0923 73.4346 38.0923C78.3473 38.0923 85.3473 36.005 85.3473 29.3713C85.3473 25.4414 82.7679 22.7418 78.4704 21.6374C76.8724 21.2683 72.9439 20.1624 72.0841 20.038C70.4862 19.5473 69.014 19.0566 69.014 17.8291C69.014 15.7418 70.8524 15.1267 73.1886 15.1267L73.1914 15.1125Z" fill="#005695"/>
</svg>
