<svg width="34" height="34" viewBox="0 0 34 34" fill="none" xmlns="http://www.w3.org/2000/svg">
<circle cx="17" cy="17" r="17" fill="#2964AE"/>
<path d="M14.8541 20.1165H19.1472C19.2187 20.1165 19.2773 20.058 19.2773 19.9866V18.6228C19.2773 18.5513 19.2187 18.4929 19.1472 18.4929H18.4967C18.4252 18.4929 18.3666 18.5513 18.3666 18.6228V19.2073H15.6347V18.6228C15.6347 18.5513 15.5761 18.4929 15.5046 18.4929H14.8541C14.7826 18.4929 14.724 18.5513 14.724 18.6228V19.9866C14.724 20.058 14.7826 20.1165 14.8541 20.1165ZM20.383 18.1195C20.383 18.2917 20.4516 18.4569 20.5736 18.5787C20.6955 18.7005 20.861 18.7689 21.0335 18.7689C21.206 18.7689 21.3715 18.7005 21.4934 18.5787C21.6154 18.4569 21.684 18.2917 21.684 18.1195C21.684 17.9472 21.6154 17.782 21.4934 17.6602C21.3715 17.5385 21.206 17.47 21.0335 17.47C20.861 17.47 20.6955 17.5385 20.5736 17.6602C20.4516 17.782 20.383 17.9472 20.383 18.1195ZM24.2695 15.3983L23.8841 14.7262C23.8668 14.6965 23.8384 14.6749 23.8052 14.6661C23.772 14.6573 23.7367 14.662 23.7069 14.6791L22.8824 15.1597L21.6092 11.6494C21.5419 11.44 21.4098 11.2573 21.2318 11.1277C21.0538 10.9981 20.8391 10.9284 20.6188 10.9286H13.5727C13.0085 10.9286 12.5076 11.2923 12.3336 11.8297L11.1205 15.1613L10.2944 14.6807C10.2646 14.6636 10.2293 14.6589 10.1961 14.6677C10.1629 14.6766 10.1345 14.6981 10.1172 14.7278L9.73176 15.3983C9.69599 15.46 9.71713 15.538 9.77892 15.5737L10.7611 16.1452L10.5253 16.7946C10.5058 16.8466 10.4961 16.9018 10.4961 16.957V22.6103C10.4961 22.8652 10.6879 23.0714 10.9237 23.0714H12.023C12.223 23.0714 12.397 22.9204 12.4393 22.7094L12.5645 22.0973H21.4368L21.562 22.7094C21.6059 22.9204 21.7783 23.0714 21.9783 23.0714H23.0776C23.3134 23.0714 23.5052 22.8652 23.5052 22.6103V16.957C23.5052 16.9018 23.4955 16.8466 23.476 16.7946L23.2402 16.1452L24.2207 15.5737C24.2503 15.5567 24.2719 15.5287 24.281 15.496C24.2902 15.4632 24.286 15.4281 24.2695 15.3983ZM22.3344 17.0804V20.9283H11.6669V17.0804L11.9206 16.3822H22.0807L22.3344 17.0804ZM13.4345 12.2274L13.4426 12.2063L13.4491 12.1852C13.467 12.1317 13.5158 12.0959 13.5727 12.0959H20.5261L21.7523 15.473H12.2523L13.4345 12.2274ZM12.3173 18.1195C12.3173 18.2917 12.3859 18.4569 12.5079 18.5787C12.6298 18.7005 12.7953 18.7689 12.9678 18.7689C13.1403 18.7689 13.3058 18.7005 13.4277 18.5787C13.5497 18.4569 13.6183 18.2917 13.6183 18.1195C13.6183 17.9472 13.5497 17.782 13.4277 17.6602C13.3058 17.5385 13.1403 17.47 12.9678 17.47C12.7953 17.47 12.6298 17.5385 12.5079 17.6602C12.3859 17.782 12.3173 17.9472 12.3173 18.1195Z" fill="white"/>
</svg>
