<svg width="249" height="43" viewBox="0 0 249 43" fill="none" xmlns="http://www.w3.org/2000/svg">
<path d="M75.1349 33.9331H80.2932V23.8417L89.4311 9.00582H83.5394L77.7124 18.9715L71.9515 9.00582H65.9986L75.1365 24.0635V33.9331H75.1349ZM104.51 26.8016C104.543 26.4208 104.573 25.815 104.573 25.0187C104.573 22.5025 103.779 20.4332 102.218 18.8738C100.658 17.3144 98.6203 16.5181 96.1057 16.5181C93.654 16.5181 91.5202 17.3789 89.739 19.1287C87.9875 20.8802 87.0953 22.9494 87.0953 25.4011C87.0953 28.0117 87.9875 30.1439 89.7704 31.8324C91.5848 33.4878 93.7815 34.3155 96.4252 34.3155C99.8933 34.3155 102.314 33.0409 103.745 30.4634L100.148 28.1077C99.3851 29.3493 97.8572 30.1439 96.3607 30.1439C94.2268 30.1439 92.4439 28.8709 92.1576 26.8016H104.51ZM92.285 23.5239C92.381 22.8534 92.7634 22.1846 93.4306 21.5489C94.0994 20.8802 94.9602 20.5623 95.9783 20.5623C98.2379 20.5623 99.4795 22.0257 99.6069 23.5222H92.285V23.5239ZM113.105 7.98608H108.106V33.9331H113.105V7.98608ZM122.68 7.98608H117.681V33.9331H122.68V7.98608ZM126.208 25.464C126.208 28.0117 127.099 30.1124 128.881 31.801C130.664 33.4878 132.861 34.3155 135.472 34.3155C138.051 34.3155 140.248 33.4547 142.062 31.7679C143.876 30.0495 144.768 27.9157 144.768 25.3697C144.768 22.8534 143.876 20.7841 142.093 19.0973C140.31 17.4087 138.114 16.5512 135.535 16.5512C132.957 16.5512 130.727 17.4104 128.913 19.1287C127.099 20.8172 126.208 22.9494 126.208 25.464ZM131.302 25.4011C131.302 24.1595 131.715 23.1083 132.51 22.3121C133.306 21.4844 134.295 21.0705 135.472 21.0705C136.65 21.0705 137.668 21.4844 138.465 22.3121C139.259 23.1083 139.673 24.1595 139.673 25.4011C139.673 27.9471 137.892 29.7631 135.503 29.7631C134.326 29.7631 133.306 29.3493 132.512 28.553C131.715 27.7253 131.302 26.6741 131.302 25.4011ZM165.721 27.5664L162.536 16.932H157.952L154.769 27.4704H154.736L151.68 16.932H146.586L151.872 33.9331H156.679L160.18 23.0769H160.214L163.683 33.9331H168.554L173.902 16.932H168.936L165.721 27.5664ZM198.921 25.815C198.379 27.2469 197.52 28.6788 195.961 30.3045C194.4 31.9268 191.854 33.0094 188.925 33.0094C185.773 33.0094 183.163 31.8639 181.093 29.6026C179.056 27.3429 178.036 24.6049 178.036 21.39C178.036 18.2066 179.056 15.5 181.093 13.2718C183.163 11.0436 185.74 9.92789 188.892 9.92789C191.695 9.92789 194.113 10.8831 195.674 12.3796C197.234 13.8132 198.252 15.3726 198.858 17.0594L200.003 16.5181C199.368 14.6409 198.189 12.8894 196.406 11.33C194.655 9.76897 191.981 8.71943 188.957 8.71943C185.422 8.71943 182.494 9.961 180.17 12.4441C177.845 14.8942 176.7 17.9203 176.7 21.486C176.7 25.0833 177.845 28.0746 180.138 30.5263C182.429 32.978 185.359 34.1881 188.892 34.1881C191.981 34.1881 194.751 33.1054 196.502 31.4815C198.285 29.8592 199.43 28.1375 200.068 26.3563L198.921 25.815ZM216.715 33.9331V23.2358C216.715 19.0344 214.167 16.6472 210.219 16.6472C206.941 16.6472 204.617 18.2066 203.47 20.6567L204.584 21.294C205.762 18.9698 207.641 17.8242 210.252 17.8242C213.594 17.8242 215.44 19.8935 215.44 23.3318V24.5088H209.932C208.15 24.5088 206.59 24.9227 205.253 25.7504C203.948 26.5467 203.279 27.7568 203.279 29.3807C203.279 30.9401 203.821 32.1188 204.903 32.978C205.986 33.8057 207.355 34.2195 208.977 34.2195C211.684 34.2195 214.167 32.7561 215.44 30.177V33.9331H216.715ZM215.473 26.9605C215.473 28.7749 214.836 30.2714 213.594 31.3871C212.353 32.5012 210.825 33.0425 209.01 33.0425C206.431 33.0425 204.584 31.7364 204.584 29.3493C204.584 28.1077 205.125 27.184 206.208 26.5798C207.322 25.9739 208.563 25.656 209.997 25.656H215.473V26.9605ZM230.099 16.7101C228.698 16.7101 227.394 17.1555 226.215 18.0461C225.067 18.8618 224.209 20.0212 223.763 21.3569V16.932H222.522V33.9331H223.763V25.3697C223.763 23.3004 224.336 21.5804 225.45 20.1485C226.566 18.7149 228.157 17.9832 230.163 17.9832H230.418V16.7416C230.354 16.7085 230.258 16.7085 230.099 16.7085V16.7101ZM248.034 33.9331V8.01919H246.823V21.4844C245.582 18.5874 242.94 16.6456 239.629 16.6456C237.242 16.6456 235.298 17.5064 233.739 19.2247C232.18 20.9133 231.415 22.9825 231.415 25.4011C231.415 27.8213 232.18 29.8906 233.676 31.6089C235.204 33.3289 237.177 34.1881 239.629 34.1881C241.253 34.1881 242.716 33.7411 243.991 32.819C245.253 31.9356 246.236 30.7091 246.823 29.2847V33.9331H248.034ZM239.692 32.978C237.623 32.978 235.936 32.2463 234.631 30.8127C233.325 29.3493 232.688 27.5349 232.688 25.3697V25.3365C232.688 23.2044 233.325 21.4215 234.631 19.9895C235.936 18.5559 237.623 17.8557 239.692 17.8557C241.794 17.8557 243.513 18.6205 244.85 20.117C246.163 21.5487 246.881 23.4272 246.857 25.3697V25.464C246.857 27.5018 246.188 29.2533 244.819 30.7498C243.481 32.2463 241.761 32.978 239.692 32.978Z" fill="#0D0727"/>
<path d="M4.23347 10.3832C4.40398 9.42135 5.32108 8.77739 6.28288 8.9479L39.0569 14.7253C40.017 14.8958 40.661 15.8146 40.4905 16.7764L36.2857 40.631C36.1152 41.5911 35.1981 42.2334 34.2363 42.0646L1.46229 36.2839C1.23342 36.2437 1.01471 36.1588 0.818669 36.034C0.622633 35.9092 0.453116 35.747 0.319816 35.5567C0.186515 35.3663 0.0920452 35.1516 0.0418088 34.9247C-0.00842767 34.6978 -0.013445 34.4633 0.0270438 34.2345L4.23347 10.3798V10.3832Z" fill="#FEE5B0"/>
<path d="M13.9161 5.52783C14.2505 4.60907 15.2652 4.13728 16.184 4.47002L47.4549 15.8527C48.3737 16.1871 48.8455 17.2019 48.5127 18.1206L40.2273 40.881C39.8946 41.7981 38.8798 42.2715 37.9611 41.9388L6.69017 30.5561C6.47153 30.477 6.27064 30.3555 6.09901 30.1987C5.92738 30.0418 5.78838 29.8526 5.68997 29.6419C5.59156 29.4313 5.53567 29.2033 5.5255 28.971C5.51533 28.7387 5.55108 28.5067 5.6307 28.2882L13.9177 5.52617L13.9161 5.52783Z" fill="#FDCA5F"/>
<path d="M25.0986 1.85936C25.3333 1.4535 25.7196 1.15749 26.1725 1.03641C26.6255 0.915341 27.1079 0.97913 27.5138 1.21375L56.3347 17.8507C57.179 18.3407 57.4703 19.4234 56.9803 20.2676L44.8709 41.2451C44.7547 41.4463 44.6 41.6226 44.4156 41.764C44.2312 41.9053 44.0207 42.0089 43.7963 42.0689C43.5718 42.1288 43.3377 42.144 43.1074 42.1134C42.8771 42.0828 42.6551 42.0072 42.454 41.8907L13.6331 25.2538C13.432 25.1376 13.2557 24.9828 13.1143 24.7984C12.973 24.614 12.8694 24.4036 12.8094 24.1791C12.7494 23.9547 12.7343 23.7206 12.7649 23.4903C12.7954 23.2599 12.8711 23.0379 12.9875 22.8369L25.0953 1.85936H25.0986Z" fill="#FCB41C"/>
</svg>
