<svg width="183" height="50" viewBox="0 0 183 50" fill="none" xmlns="http://www.w3.org/2000/svg">
<path d="M46.1803 28.7336V39.2582H37.4131V4.35034H46.1803V22.0528H50.1055L55.694 12.6998H64.8789L57.3647 25.4754L64.8844 39.2582H55.694L49.9336 28.7373L46.1803 28.7336Z" fill="#ED017F"/>
<path d="M91.8567 31.7385L91.7717 20.299V18.9629C91.439 14.9544 87.8483 12.0327 83.7567 12.3672H72.3265C71.8594 12.321 71.389 12.321 70.9219 12.3672C69.9713 12.4577 69.0478 12.7348 68.2044 13.1826C67.3609 13.6303 66.614 14.24 66.0064 14.9767C65.3987 15.7134 64.9423 16.5627 64.6632 17.4759C64.3841 18.3892 64.2878 19.3485 64.3798 20.299V33.0746C64.7143 37.083 68.3051 40.0048 72.3135 39.6722H85.2499C89.2676 39.3377 92.1893 35.7469 91.8567 31.7385ZM83.1708 31.3208C83.157 31.559 83.0913 31.7914 82.9785 32.0017C82.8656 32.2119 82.7083 32.3951 82.5174 32.5383C82.3265 32.6815 82.1066 32.7814 81.8732 32.8309C81.6397 32.8804 81.3983 32.8785 81.1657 32.8251H74.655C73.6534 32.7401 73.0675 31.9011 73.1525 30.9031V20.554C73.1979 20.0894 73.4254 19.6617 73.7852 19.3642C74.1449 19.0668 74.6078 18.9238 75.0727 18.9666H81.5852C82.5092 19.0497 83.1727 19.9682 83.0877 20.9717H83.1727L83.1708 31.3208Z" fill="#ED017F"/>
<path d="M109.057 19.4637C107.011 19.4572 104.978 19.7958 103.045 20.4654V39.0863H94.2778V12.6998H101.96L102.461 15.2058C104.047 14.2818 105.634 13.452 107.305 13.0343C108.666 12.5363 110.105 12.2817 111.555 12.2822H113.727C114.654 12.2173 115.586 12.3369 116.467 12.6341C117.348 12.9313 118.161 13.4002 118.86 14.0137C119.559 14.6272 120.129 15.3731 120.538 16.2083C120.946 17.0436 121.185 17.9515 121.241 18.8797V39.2582H112.647V21.2212C112.613 20.7443 112.404 20.2969 112.06 19.9645C111.72 19.6456 111.273 19.4668 110.807 19.4637H109.057Z" fill="#ED017F"/>
<path d="M149.472 40.6738V12.6998H129.683C127.754 12.9109 125.985 13.8675 124.752 15.3654C123.52 16.8633 122.921 18.7837 123.085 20.7167V31.5721C123.211 33.442 124.073 35.1859 125.481 36.4221C126.89 37.6582 128.731 38.286 130.601 38.1678H132.355C135.277 38.1678 138.115 37.7502 140.871 37.1662L140.705 39.6722C140.701 40.1374 140.522 40.5842 140.204 40.9233C139.857 41.2301 139.414 41.4071 138.951 41.4241C135.694 41.4241 130.851 41.2578 124.505 40.757V47.1863C130.35 47.7703 136.112 48.188 141.958 48.188H142.882C146.803 47.8553 149.723 44.5141 149.472 40.6738ZM140.871 30.9882C138.885 31.3259 136.874 31.4959 134.859 31.4964V31.4114H133.606C133.381 31.4076 133.159 31.359 132.954 31.2685C132.748 31.178 132.562 31.0474 132.407 30.8843C132.252 30.7212 132.131 30.5289 132.052 30.3186C131.972 30.1083 131.935 29.8842 131.943 29.6594V20.9625C132.026 19.959 132.945 19.375 133.946 19.4582H140.876L140.871 30.9882Z" fill="#ED017F"/>
<path d="M170.347 12.2766C164.836 12.3616 159.409 12.6111 153.981 13.28L153.641 19.2142L159.904 18.7133L167.086 18.462C167.317 18.4555 167.548 18.4966 167.764 18.5828C167.979 18.6689 168.175 18.7982 168.339 18.9628C168.671 19.3805 168.922 19.7981 168.922 20.2158V22.2191H157.816C153.975 22.4704 150.978 25.893 151.303 29.7351V33.0745C151.368 33.9961 151.614 34.8959 152.027 35.7223C152.44 36.5487 153.012 37.2855 153.71 37.8905C154.408 38.4954 155.219 38.9567 156.095 39.2478C156.972 39.539 157.898 39.6543 158.819 39.5871H160.571C161.997 39.589 163.412 39.3348 164.748 38.8368C166.5 38.4191 168.087 37.5838 169.59 36.5822L170.175 39.0863H177.856V18.7965C177.612 14.9544 174.188 12.0326 170.347 12.2766ZM169.178 31.7329C167.229 32.331 165.204 32.6422 163.166 32.6569V32.8251H161.913C161.683 32.8251 161.455 32.7797 161.242 32.6915C161.029 32.6034 160.836 32.4742 160.673 32.3113C160.511 32.1484 160.382 31.955 160.294 31.7423C160.206 31.5295 160.161 31.3015 160.161 31.0713V30.5723C160.154 30.3403 160.196 30.1095 160.282 29.894C160.368 29.6785 160.497 29.4829 160.662 29.3193C160.814 29.1351 161.005 28.9872 161.221 28.8862C161.438 28.7852 161.674 28.7336 161.913 28.7353H169.178V31.7329Z" fill="#ED017F"/>
<path d="M151.81 45.9333H148.553V49.3578H151.81V45.9333Z" fill="#ED017F"/>
<path d="M157.99 49.5241C157.369 49.5231 156.751 49.4392 156.153 49.2746L154.733 48.5225C154.382 48.19 154.098 47.7928 153.898 47.3526C153.526 46.5643 153.415 45.6778 153.581 44.822C153.747 43.9663 154.182 43.1858 154.822 42.5939L156.158 41.9268C156.701 41.7883 157.262 41.7316 157.821 41.7586L159.158 41.9268L160.327 42.3426V44.3477H159.91L159.575 44.0132C159.258 43.7639 158.886 43.5924 158.49 43.5124L157.821 43.4292C157.237 43.4292 156.737 43.5956 156.402 44.0132C156.004 44.4736 155.795 45.0681 155.818 45.6765C155.818 46.1773 155.984 46.8444 156.402 47.2621C156.594 47.4349 156.818 47.568 157.062 47.654C157.305 47.7399 157.564 47.7769 157.821 47.7629L158.574 47.6798L159.243 47.4303L159.575 47.1789L159.91 46.9294H160.327V48.9327L159.158 49.4336L157.99 49.5241Z" fill="#ED017F"/>
<path d="M169.349 45.6838C169.349 44.5972 169.015 43.5124 168.263 42.7602C167.427 42.0931 166.426 41.5923 165.341 41.7586C164.251 41.7463 163.189 42.1025 162.327 42.7695C161.66 43.5216 161.159 44.6064 161.325 45.6931C161.315 46.7248 161.67 47.727 162.327 48.5225C163.155 49.2233 164.206 49.6078 165.291 49.6078C166.376 49.6078 167.427 49.2233 168.255 48.5225C169.011 47.6871 169.429 46.7687 169.349 45.6838ZM166.762 46.7687L166.428 47.4376L165.927 47.8553C165.762 47.9857 165.552 48.0455 165.343 48.0216C165.091 48.0216 164.759 48.0216 164.591 47.8553C164.341 47.7703 164.173 47.6871 164.09 47.5208L163.672 46.8518L163.589 45.767C163.527 45.3758 163.555 44.9756 163.672 44.5972L164.09 43.8469L164.591 43.5124L165.26 43.4292L165.838 43.5087C165.956 43.5108 166.071 43.5425 166.173 43.601C166.275 43.6595 166.361 43.7428 166.422 43.8432L166.757 44.5935L166.84 45.6801L166.762 46.7687Z" fill="#ED017F"/>
<path d="M177.947 44.0133V49.2747H175.524V44.6823L175.358 44.0133L175.023 43.6788L174.273 43.5956L173.521 43.7638L172.937 44.0133V49.2747H170.597V41.9268H173.02V42.6772L174.188 42.01C174.583 41.8382 175.01 41.7526 175.441 41.7587C175.893 41.7514 176.337 41.8733 176.722 42.11C177.106 42.3467 177.415 42.6884 177.612 43.0948C177.999 42.6894 178.451 42.351 178.949 42.0932C179.367 41.8946 179.822 41.7809 180.285 41.7587C180.952 41.5924 181.621 41.9269 182.038 42.4277C182.539 43.0948 182.789 43.7638 182.706 44.5141V49.3579H180.368V44.7655L180.201 44.0965C180.163 44.0122 180.105 43.9383 180.032 43.8805C179.96 43.8227 179.875 43.7828 179.784 43.7638L179.115 43.6788L178.531 43.7638L177.947 44.0133Z" fill="#ED017F"/>
<path d="M33.8223 6.10416C32.0119 4.28619 29.8477 2.85909 27.4636 1.91118C25.0796 0.963263 22.5263 0.514707 19.9619 0.593265C17.4613 0.548464 14.9764 0.996875 12.6492 1.91287C10.322 2.82887 8.19817 4.1945 6.39901 5.93171C4.59984 7.66891 3.16066 9.74364 2.1637 12.0373C1.16675 14.331 0.631565 16.7986 0.588746 19.2993C0.588746 19.5229 0.588746 19.7483 0.588746 19.972C0.2524 30.4855 8.6056 39.2582 19.1266 39.504H19.9619C30.4829 39.7554 39.2463 31.404 39.4182 20.883V19.8814C39.4922 17.3224 39.0329 14.776 38.0695 12.4041C37.1061 10.0323 35.6597 7.8868 33.8223 6.10416Z" fill="#F9A024"/>
<path d="M19.962 39.9217C14.7854 40.0121 9.7829 38.053 6.04439 34.4713C2.30588 30.8896 0.134378 25.9755 0.00302769 20.7999V19.9645C-0.0878687 14.7878 1.87104 9.78502 5.45285 6.0464C9.03465 2.30778 13.949 0.13643 19.1248 0.00555892H19.9602C22.5207 -0.0555928 25.0681 0.388299 27.457 1.31189C29.8459 2.23547 32.0295 3.62066 33.8829 5.38831C35.7364 7.15596 37.2235 9.27144 38.2592 11.6139C39.2949 13.9564 39.8589 16.48 39.9191 19.0405V19.9645C39.9876 22.5269 39.5488 25.0775 38.6279 27.4697C37.707 29.8619 36.3222 32.0483 34.5531 33.9033C32.784 35.7582 30.6656 37.2451 28.3198 38.2782C25.9739 39.3114 23.4469 39.8706 20.8842 39.9235L19.962 39.9217ZM19.962 1.0109C15.0593 0.898158 10.3118 2.73281 6.759 6.11311C3.20621 9.49341 1.13772 14.1439 1.00652 19.046V19.9701C0.840196 30.2416 8.8552 38.7592 19.2098 38.9256H19.962C22.395 39.0023 24.8191 38.595 27.0933 37.7271C29.3676 36.8592 31.4468 35.5482 33.2102 33.8701C34.9736 32.192 36.386 30.1803 37.3654 27.9518C38.3449 25.7233 38.8718 23.3224 38.9156 20.8886V19.9645C39.167 9.77806 30.9838 1.26038 20.8047 1.09406L19.962 1.0109Z" fill="#ED017F"/>
<path d="M9.94152 13.3689C10.6261 12.7499 11.5231 12.4189 12.4456 12.4449C13.4776 12.4282 14.5017 12.6271 15.4524 13.0288C16.4852 13.4417 17.4658 13.9745 18.3742 14.6163L18.7918 14.2818C18.2079 13.112 17.2894 12.1935 16.2046 11.4432C15.0325 10.7812 13.7085 10.4354 12.3625 10.4397C11.6481 10.4579 10.9423 10.5992 10.276 10.8574C9.60009 11.1258 9.02056 11.5913 8.61277 12.1935C8.19511 12.6943 7.94378 13.3633 7.68874 13.9473C7.50904 14.5705 7.45255 15.2227 7.52242 15.8675H8.1064C8.54387 14.9197 9.16802 14.0699 9.94152 13.3689ZM22.5508 11.5375C23.3843 10.9535 24.3878 10.6134 25.3894 10.2845C26.2247 10.035 27.2264 10.2013 28.0617 10.7021C28.9548 11.2591 29.7456 11.9655 30.3995 12.7904L30.9003 12.6223C30.8171 12.0383 30.649 11.2861 30.2313 10.7853C29.9287 10.1513 29.4687 9.60534 28.8952 9.19968C28.3943 8.69886 27.644 8.44752 26.975 8.27565C26.261 8.1075 25.5176 8.1075 24.8036 8.27565C23.533 8.58447 22.3679 9.2269 21.4287 10.1366C20.4895 11.0462 19.8101 12.1902 19.4608 13.4502L19.9617 13.7015L22.4658 11.4469L22.5508 11.5375ZM31.4843 24.642C31.092 25.6234 30.5289 26.5276 29.821 27.3124C29.4884 27.6469 29.1539 28.0646 28.6531 28.3991L27.4001 29.3231C25.5535 30.3099 23.546 30.9601 21.4715 31.2433C19.3907 31.563 17.2694 31.5067 15.2085 31.0769C14.1969 30.8255 13.2168 30.461 12.2867 29.9903C11.2851 29.5726 10.4497 28.9055 9.53125 28.2365L9.27992 28.4878C10.6172 30.4203 12.5541 31.8583 14.7908 32.5794C17.0376 33.3975 19.4624 33.5992 21.8134 33.1634C24.1655 32.8553 26.4037 31.9661 28.326 30.5761C30.2423 29.1119 31.504 26.9511 31.8373 24.5625H31.4843V24.642ZM19.6272 18.3753L20.3793 25.3055L20.797 25.2223L19.9617 18.3753H19.6272Z" fill="#ED017F"/>
</svg>
