<svg width="157" height="55" viewBox="0 0 157 55" fill="none" xmlns="http://www.w3.org/2000/svg">
<path d="M12.0733 25.4697L18.2897 39.3274L22.183 30.7737L23.5785 33.1508L24.6161 36.1188L21.9227 42.0081C21.1821 43.6432 19.8232 44.6197 18.2886 44.6197C16.7694 44.6197 15.4224 43.6616 14.6762 42.0551L14.6537 42.0062L11.9954 36.1402L9.66184 30.8127L12.0734 25.4697H12.0733ZM7.24168 19.6681C8.61303 19.6681 9.82015 20.5159 10.4797 21.9385L10.5009 21.985L12.0735 25.4697L9.66195 30.8127L7.24168 25.4493L4.79835 30.827L3.8593 33.9013L2.39309 36.1209L0 30.7533L3.98218 21.9849C4.63677 20.5343 5.85531 19.668 7.24157 19.668L7.24168 19.6681Z" fill="#2964AE"/>
<path d="M21.9373 19.6067C21.1997 17.9746 19.8496 17 18.3239 17C16.7971 17 15.4459 17.9746 14.7094 19.6086L7.24247 36.1784L4.81829 30.7865L2.3941 36.1218L3.98224 39.6425C4.63682 41.0932 5.85537 41.9595 7.24163 41.9595C8.62778 41.9595 9.84622 41.0932 10.5008 39.6425L18.3239 22.2826L24.6132 36.1422L27.0717 30.7533L21.9373 19.6067Z" fill="#2964AE"/>
<path d="M60.1613 40V29.452C60.1613 26.596 59.1173 25.168 57.0293 25.168C55.9493 25.168 55.0973 25.54 54.4733 26.284C53.8733 27.004 53.5733 28.084 53.5733 29.524V40H49.3613V29.452C49.3613 26.596 48.3173 25.168 46.2293 25.168C45.1493 25.168 44.2973 25.54 43.6733 26.284C43.0733 27.004 42.7733 28.084 42.7733 29.524V40H38.5613V21.604H42.7733V23.296C43.8293 21.88 45.3293 21.172 47.2733 21.172C49.5293 21.172 51.1373 22.036 52.0973 23.764C53.2733 22.036 55.1213 21.172 57.6413 21.172C59.7053 21.172 61.3373 21.748 62.5373 22.9C63.7613 24.028 64.3733 25.816 64.3733 28.264V40H60.1613ZM77.1283 40.432C74.5363 40.432 72.4843 39.58 70.9723 37.876C69.4603 36.172 68.7043 33.82 68.7043 30.82C68.7043 27.82 69.4603 25.468 70.9723 23.764C72.4843 22.036 74.5363 21.172 77.1283 21.172C79.7203 21.172 81.7723 22.036 83.2843 23.764C84.8203 25.468 85.5883 27.82 85.5883 30.82C85.5883 33.82 84.8323 36.172 83.3203 37.876C81.8083 39.58 79.7443 40.432 77.1283 40.432ZM77.1283 36.4C78.4483 36.4 79.4803 35.908 80.2243 34.924C80.9923 33.94 81.3763 32.572 81.3763 30.82C81.3763 29.068 80.9923 27.688 80.2243 26.68C79.4803 25.672 78.4483 25.168 77.1283 25.168C75.8563 25.168 74.8363 25.684 74.0683 26.716C73.3003 27.724 72.9163 29.092 72.9163 30.82C72.9163 32.548 73.2883 33.916 74.0323 34.924C74.8003 35.908 75.8323 36.4 77.1283 36.4ZM101.476 40V29.452C101.476 26.596 100.336 25.168 98.0564 25.168C95.5604 25.168 94.3124 26.572 94.3124 29.38V40H90.1004V21.604H94.3124V23.332C95.5124 21.892 97.1324 21.172 99.1724 21.172C101.092 21.172 102.652 21.772 103.852 22.972C105.076 24.172 105.688 26.08 105.688 28.696V40H101.476ZM116.313 40.432C113.457 40.432 112.029 38.86 112.029 35.716V25.276H109.293V21.604H112.029V16.024L116.241 14.008V21.604H120.489V25.276H116.241V34.888C116.241 36.064 116.757 36.652 117.789 36.652C118.725 36.652 119.685 36.376 120.669 35.824L120.165 39.604C119.109 40.156 117.825 40.432 116.313 40.432ZM134.994 40V38.524C133.77 39.796 132.138 40.432 130.098 40.432C128.13 40.432 126.522 39.904 125.274 38.848C124.05 37.768 123.438 36.256 123.438 34.312C123.438 32.32 124.134 30.808 125.526 29.776C126.942 28.744 128.646 28.228 130.638 28.228C132.39 28.228 133.842 28.552 134.994 29.2V28.228C134.994 27.052 134.694 26.2 134.094 25.672C133.518 25.144 132.618 24.88 131.394 24.88C129.402 24.88 127.578 25.456 125.922 26.608L124.626 23.188C126.618 21.844 129.018 21.172 131.826 21.172C132.786 21.172 133.626 21.256 134.346 21.424C135.09 21.568 135.846 21.868 136.614 22.324C137.406 22.78 138.018 23.5 138.45 24.484C138.882 25.468 139.098 26.692 139.098 28.156V40H134.994ZM130.89 36.724C132.498 36.724 133.866 36.136 134.994 34.96V32.584C133.938 32.08 132.714 31.828 131.322 31.828C130.194 31.828 129.282 32.032 128.586 32.44C127.89 32.848 127.542 33.472 127.542 34.312C127.542 35.056 127.83 35.644 128.406 36.076C128.982 36.508 129.81 36.724 130.89 36.724ZM144.136 40V21.604H148.348V23.512C149.092 21.952 150.352 21.172 152.128 21.172C153.424 21.172 154.564 21.592 155.548 22.432L154.936 26.284C154.024 25.636 152.98 25.312 151.804 25.312C150.844 25.312 150.028 25.648 149.356 26.32C148.684 26.992 148.348 28.12 148.348 29.704V40H144.136Z" fill="#2964AE"/>
</svg>
