<svg width="146" height="48" viewBox="0 0 146 48" fill="none" xmlns="http://www.w3.org/2000/svg">
<path fill-rule="evenodd" clip-rule="evenodd" d="M102.231 39.7134H98.5382C98.1453 39.7134 97.7524 39.3225 97.7524 38.8534V34.241C97.7524 33.8502 98.1453 33.4593 98.5382 33.4593H102.231C102.703 33.4593 103.096 33.8502 103.096 34.241V38.8534C103.096 39.3225 102.703 39.7134 102.231 39.7134ZM18.3089 39.7134H14.5371C14.0657 39.7134 13.6728 39.2443 13.6728 38.8534V25.4072C13.6728 21.8892 13.0441 20.9511 10.2939 20.9511C8.87944 20.9511 7.22928 21.4202 5.50054 22.3583V38.8534C5.50054 39.2443 5.10764 39.7134 4.63617 39.7134H0.86437C0.392896 39.7134 0 39.2443 0 38.8534V0.781759C0 0.390879 0.392896 0 0.86437 0H4.63617C5.10764 0 5.50054 0.390879 5.50054 0.781759V17.9023C7.07212 16.9642 8.80086 16.4169 11.7083 16.4169C17.4446 16.4169 19.1733 20.4039 19.1733 25.4072V38.8534C19.1733 39.2443 18.7804 39.7134 18.3089 39.7134ZM34.1033 26.5798C34.1033 23.2182 32.6103 21.0293 29.7029 21.0293C26.7955 21.0293 25.2239 23.2182 25.2239 26.5798V29.8632C25.2239 33.2248 26.7955 35.3355 29.7029 35.3355C32.6103 35.3355 34.1033 33.2248 34.1033 29.8632V26.5798ZM29.7029 40.0261C23.1808 40.0261 19.8019 35.7264 19.8019 29.8632V26.5798C19.8019 20.7166 23.1808 16.4169 29.7029 16.4169C36.1464 16.4169 39.6039 20.7166 39.6039 26.5798V29.8632C39.6039 35.7264 36.1464 40.0261 29.7029 40.0261ZM51.7836 39.7134C50.7621 39.8697 49.8977 40.0261 48.9548 40.0261C44.24 40.0261 42.3541 39.0098 42.3541 33.5375V20.7166L38.5038 20.1694C38.0323 20.0912 37.6394 19.7785 37.6394 19.3094V17.5114C37.6394 17.0423 38.0323 16.6515 38.5038 16.6515H42.3541V13.2899C42.3541 12.899 42.747 12.5863 43.2185 12.5081L47.0689 11.8827H47.2261C47.6189 11.8827 47.8547 12.0391 47.8547 12.43V16.6515H51.6265C52.0194 16.6515 52.4123 17.0423 52.4123 17.5114V19.8567C52.4123 20.3257 52.0194 20.7166 51.6265 20.7166H47.8547V33.5375C47.8547 35.57 48.0118 35.8046 49.5048 35.8046H51.7051C52.2551 35.8046 52.5694 36.0391 52.5694 36.43V39.0098C52.5694 39.4007 52.3337 39.6352 51.7836 39.7134ZM67.1066 26.0326C67.1066 22.9055 65.3778 21.0293 62.7847 21.0293C60.1916 21.0293 58.3843 22.8274 58.3843 26.0326V26.1889H67.1066V26.0326ZM71.8213 30.0195H58.3057V30.1759C58.3057 32.5212 59.3272 35.3355 63.2562 35.3355C66.3208 35.3355 69.1496 35.101 70.8784 34.9446H71.0355C71.4284 34.9446 71.7427 35.1792 71.7427 35.57V38.228C71.7427 38.9316 71.6642 39.1661 70.8784 39.3225C68.2067 39.7915 66.6351 40.0261 62.8633 40.0261C58.6986 40.0261 52.8837 37.8371 52.8837 29.785V26.7362C52.8837 20.4039 56.4198 16.4169 62.7847 16.4169C69.1496 16.4169 72.6857 20.6384 72.6857 26.7362V29.0033C72.6857 29.7068 72.3714 30.0195 71.8213 30.0195ZM78.5005 47.8436H74.6502C74.1787 47.8436 73.7858 47.3746 73.7858 46.9837V9.45928C73.7858 8.99023 74.1787 8.59935 74.6502 8.59935H78.5005C78.972 8.59935 79.2863 8.99023 79.2863 9.45928V46.9837C79.2863 47.3746 78.972 47.8436 78.5005 47.8436ZM88.4015 40.0261C86.8299 40.0261 83.2939 39.7915 81.0151 39.1661C80.465 39.0879 80.2293 38.7752 80.2293 38.228V35.8046C80.2293 35.4919 80.465 35.1792 80.9365 35.1792H81.0937C83.0581 35.4137 86.8299 35.57 88.0086 35.57C90.6017 35.57 90.9946 34.7883 90.9946 33.6156C90.9946 32.9121 90.5231 32.3648 89.1873 31.5831L83.451 28.1433C82.4371 27.5798 81.5863 26.7658 80.9807 25.7799C80.3751 24.7939 80.0351 23.6694 79.9935 22.5147C79.9935 18.4495 82.5867 16.4169 87.8515 16.4169C91.2304 16.4169 93.1163 16.7296 95.2379 17.1987C95.7879 17.355 96.0237 17.6678 96.0237 18.1368V20.4821C96.0237 21.0293 95.7879 21.2638 95.3165 21.2638H95.1593C93.9806 21.1075 90.6803 20.7948 88.3229 20.7948C86.3585 20.7948 85.4941 21.2638 85.4941 22.5147C85.4941 23.1401 86.1227 23.5309 87.1442 24.1564L92.5662 27.4397C96.0237 29.5505 96.5737 31.5831 96.5737 33.6156C96.5737 37.2117 93.8235 40.0261 88.4015 40.0261ZM122.819 39.7134H119.047C118.576 39.7134 118.183 39.2443 118.183 38.8534V25.5635C118.183 21.9674 117.869 20.9511 114.647 20.9511C113.233 20.9511 111.74 21.4984 110.011 22.4365V38.8534C110.011 39.2443 109.618 39.7134 109.146 39.7134H105.375C104.903 39.7134 104.51 39.2443 104.51 38.8534V17.5114C104.51 17.0423 104.903 16.6515 105.375 16.6515H108.989C109.382 16.6515 109.775 17.0423 109.775 17.5114V18.3713C112.211 16.8078 113.783 16.4169 116.533 16.4169C122.505 16.4169 123.684 20.3257 123.684 25.5635V38.8534C123.684 39.2443 123.291 39.7134 122.819 39.7134ZM139.635 24.2345C139.635 22.2801 138.771 20.7948 135.235 20.7948C131.699 20.7948 130.756 22.3583 130.756 24.2345V24.6254C130.756 26.1107 131.306 27.8306 135.235 27.8306C138.614 27.8306 139.635 26.658 139.635 24.6254V24.2345ZM140.107 41.2769C140.107 40.4169 139.557 39.8697 135.235 38.8534L131.541 37.9935C130.913 38.8534 130.441 39.4007 130.441 40.8078V41.1987C130.441 42.8404 131.541 43.8567 135.392 43.8567C139.399 43.8567 140.107 43.0749 140.107 41.5896V41.2769ZM145.371 20.4039L143.957 20.9511C144.664 21.8892 144.978 22.7492 144.978 24.1564V24.4691C144.978 29.5505 141.442 31.8958 135.235 31.8958C133.034 31.8958 131.541 31.5049 130.677 31.1922C130.206 31.5049 129.97 31.8958 129.97 32.2866C129.97 33.0684 130.441 33.3811 131.384 33.6156L136.256 34.7883C141.914 36.0391 145.529 36.899 145.529 41.2769V41.5896C145.529 45.7329 142.464 48 135.392 48C128.713 48 125.098 45.4984 125.098 41.1987V40.8078C125.098 39.1661 125.884 37.5244 127.22 36.3518C126.648 35.9068 126.188 35.3367 125.875 34.6859C125.561 34.035 125.403 33.321 125.412 32.5993V32.5212C125.412 31.2704 125.884 30.0195 127.062 29.2378C125.805 27.987 125.334 26.5016 125.334 24.4691V24.1564C125.334 20.0912 128.005 16.6515 135.235 16.6515H144.9C145.529 16.6515 146 17.1987 146 17.7459V19.4658C146 20.0912 145.843 20.1694 145.371 20.4039Z" fill="#00AEFF"/>
</svg>
