<svg width="26" height="27" viewBox="0 0 26 27" fill="none" xmlns="http://www.w3.org/2000/svg">
<path d="M26 19.4159C25.9994 21.1858 25.3917 22.9024 24.2775 24.2816C23.1633 25.6609 21.6094 26.6199 19.8731 27L19.0437 24.5229C19.8032 24.3983 20.5255 24.1076 21.1585 23.6716C21.7916 23.2357 22.3196 22.6653 22.7045 22.0017H19.5C18.8104 22.0017 18.1491 21.729 17.6615 21.2436C17.1739 20.7582 16.9 20.0998 16.9 19.4133V14.2364C16.9 13.5499 17.1739 12.8915 17.6615 12.4061C18.1491 11.9207 18.8104 11.648 19.5 11.648H23.3194C23.0022 9.14611 21.7788 6.84548 19.8789 5.17775C17.9789 3.51003 15.533 2.58983 13 2.58983C10.467 2.58983 8.02109 3.51003 6.12115 5.17775C4.2212 6.84548 2.99784 9.14611 2.6806 11.648H6.5C7.18956 11.648 7.85088 11.9207 8.33848 12.4061C8.82607 12.8915 9.1 13.5499 9.1 14.2364V19.4133C9.1 20.0998 8.82607 20.7582 8.33848 21.2436C7.85088 21.729 7.18956 22.0017 6.5 22.0017H2.6C1.91044 22.0017 1.24912 21.729 0.761522 21.2436C0.273928 20.7582 0 20.0998 0 19.4133V12.9422C0 5.79422 5.8201 0 13 0C20.1799 0 26 5.79422 26 12.9422V19.4159ZM23.4 19.4133V14.2364H19.5V19.4133H23.4ZM2.6 14.2364V19.4133H6.5V14.2364H2.6Z" fill="#2D6EBB"/>
</svg>
